# xmcd CD database file
#
# Track frame offsets:
#	150
#	18327
#	32185
#	47102
#	69002
#	87545
#	101717
#
# Disc length: 1531 seconds
#
# Revision: 0
# Processed by: cddbd v1.5.1PL2 Copyright (c) Steve Scherf et al.
# Submitted via: CDex 1.51
#
DISCID=5405f907
DTITLE=DAMAGE - DAMAGE [CD2]　DAMAGE LIVED! -LIVE at Yaneura '96.10.25.-
DYEAR=1900
DGENRE=Merodic Punk
TTITLE0=TOMORROW WILL BE SUNNY
TTITLE1=NOWHERE
TTITLE2=AWAY FROM THE CROWD
TTITLE3=ONEDAYS HAPPY
TTITLE4=LOVE HARDLY HURTS
TTITLE5=LEAVE ME ALONE
TTITLE6=BRIGHT BLUE SKY
EXTD=
EXTT0=
EXTT1=
EXTT2=
EXTT3=
EXTT4=
EXTT5=
EXTT6=
PLAYORDER=
